<?xml version="1.0" encoding="UTF-8"?>
<svg version="1.1" xmlns="http://www.w3.org/2000/svg" width="1536" height="1024">
<path d="M0 0 C506.88 0 1013.76 0 1536 0 C1536 337.92 1536 675.84 1536 1024 C1029.12 1024 522.24 1024 0 1024 C0 686.08 0 348.16 0 0 Z " fill="#FDFDFD" transform="translate(0,0)"/>
<path d="M0 0 C1.28016998 -0.0071553 2.56033997 -0.01431061 3.87930298 -0.02168274 C7.38362771 -0.04017793 10.88719041 -0.02727107 14.39148331 -0.00759244 C18.06202305 0.00881145 21.73251519 -0.00002124 25.40307617 -0.00511169 C31.56669262 -0.00963074 37.7300054 0.00622516 43.89355469 0.03417969 C51.01521188 0.06623103 58.13632146 0.06621543 65.25801754 0.04896492 C72.11435232 0.03309025 78.97048671 0.03983934 85.82681274 0.05690193 C88.74221138 0.06376697 91.65744912 0.0627457 94.57284546 0.05535698 C98.64522622 0.04625938 102.71676393 0.0702496 106.7890625 0.09765625 C107.99752838 0.09113037 109.20599426 0.08460449 110.45108032 0.07788086 C118.61769464 0.171472 118.61769464 0.171472 122.61987305 2.53944397 C125.78780054 6.2732479 125.53513 8.80876546 125.5715332 13.66357422 C125.5781044 14.3873526 125.5846756 15.11113098 125.59144592 15.85684204 C125.61118855 18.2568573 125.62284375 20.65680995 125.6328125 23.05688477 C125.63688803 23.87625204 125.64096355 24.69561932 125.64516258 25.5398159 C125.66602768 29.8768018 125.68032734 34.21375601 125.68969727 38.55078125 C125.70076128 43.02998293 125.73515946 47.50868777 125.77486897 51.98771381 C125.80101785 55.4321332 125.80938755 58.87643392 125.81297874 62.32094383 C125.81784939 63.97195986 125.82947707 65.62297042 125.84801674 67.27388954 C125.87237198 69.58647613 125.87145043 71.89777358 125.86450195 74.21044922 C125.87036819 75.52568069 125.87623444 76.84091217 125.88227844 78.19599915 C125.31630053 82.18206655 124.20970072 83.81179346 121.39453125 86.63110352 C118.91098084 87.87287872 117.26345503 87.75147032 114.48583984 87.74462891 C113.46493256 87.74455338 112.44402527 87.74447784 111.3921814 87.74440002 C109.73432114 87.7366581 109.73432114 87.7366581 108.04296875 87.72875977 C106.91380035 87.72734482 105.78463196 87.72592987 104.62124634 87.72447205 C101.00398137 87.71886095 97.38677761 87.70630654 93.76953125 87.69360352 C91.32161548 87.68858995 88.87369873 87.68402679 86.42578125 87.67993164 C80.41534089 87.66888791 74.40494646 87.6516158 68.39453125 87.63110352 C69.38453125 98.02610352 69.38453125 98.02610352 70.39453125 108.63110352 C72.14765625 108.56922852 73.90078125 108.50735352 75.70703125 108.44360352 C80.89848695 108.26037567 80.89848695 108.26037567 83.25 110.01782227 C84.39453125 111.63110352 84.39453125 111.63110352 84.39453125 113.63110352 C123.99453125 113.63110352 163.59453125 113.63110352 204.39453125 113.63110352 C203.73453125 110.66110352 203.07453125 107.69110352 202.39453125 104.63110352 C197.21477918 77.90073161 197.21477918 77.90073161 201.39453125 71.63110352 C204.43359375 71.11938477 204.43359375 71.11938477 208.01953125 70.94360352 C209.20804688 70.87786133 210.3965625 70.81211914 211.62109375 70.74438477 C212.99394531 70.68831055 212.99394531 70.68831055 214.39453125 70.63110352 C213.54890625 70.13610352 212.70328125 69.64110352 211.83203125 69.13110352 C205.05331049 64.53699418 200.82158658 58.99333883 198.8203125 51.03735352 C198.24342138 47.77712479 198.11359766 44.93207319 198.39453125 41.63110352 C199.39453125 40.63110352 199.39453125 40.63110352 202.33203125 40.38110352 C208.37372838 40.45615565 214.39270142 42.29655029 219.39453125 45.63110352 C219.33652344 44.54313477 219.27851562 43.45516602 219.21875 42.33422852 C218.7743558 30.4279973 220.16379335 21.24853302 228.20703125 11.88110352 C229.25401891 10.78277105 230.31068757 9.69308291 231.39453125 8.63110352 C239.1748238 12.14478402 242.47332029 19.00634246 245.4921875 26.67407227 C246.68112744 30.57029536 246.78250325 33.59619476 246.39453125 37.63110352 C246.90242188 37.2327832 247.4103125 36.83446289 247.93359375 36.42407227 C255.58263072 30.53689213 261.58610451 27.69794118 271.39453125 27.63110352 C273.06450566 29.30107792 272.60595835 31.2767304 272.64453125 33.56860352 C272.48922992 45.58892638 267.58308652 55.60107664 259.20703125 64.13110352 C256.99143213 66.26367229 254.96881564 67.91491392 252.39453125 69.63110352 C253.503125 69.65688477 254.61171875 69.68266602 255.75390625 69.70922852 C257.21748672 69.76552007 258.68102687 69.82286718 260.14453125 69.88110352 C260.87414062 69.8952832 261.60375 69.90946289 262.35546875 69.92407227 C265.61549616 70.07225533 268.05477252 70.43906597 270.91015625 72.05297852 C274.83278842 78.86597123 272.03050212 88.9446351 271.01953125 96.38110352 C270.89320313 97.38270508 270.766875 98.38430664 270.63671875 99.41625977 C269.97522678 104.41052412 269.02711449 108.85202071 267.39453125 113.63110352 C268.37314621 113.62222107 269.35176117 113.61333862 270.36003113 113.60418701 C279.58543071 113.52307777 288.81075789 113.46312692 298.03643322 113.42385483 C302.77940425 113.40298576 307.52208729 113.37468059 312.26489258 113.3293457 C316.84254599 113.2858636 321.4199225 113.26196129 325.99776649 113.25159454 C327.74368969 113.24420741 329.48959784 113.22978194 331.23540306 113.20818329 C333.68225143 113.17911723 336.12795776 113.17514875 338.57495117 113.17700195 C339.29568314 113.16262085 340.0164151 113.14823975 340.75898743 113.13342285 C345.59512793 113.17301877 348.00446221 114.20478572 351.39453125 117.63110352 C353.75547576 121.17252028 353.65179286 122.71211816 353.66015625 126.90844727 C353.66273438 128.14401367 353.6653125 129.37958008 353.66796875 130.65258789 C353.66023438 131.94487305 353.6525 133.2371582 353.64453125 134.56860352 C353.65226562 135.85702148 353.66 137.14543945 353.66796875 138.47290039 C353.66410156 140.32818359 353.66410156 140.32818359 353.66015625 142.22094727 C353.65790039 143.35395264 353.65564453 144.48695801 353.65332031 145.65429688 C353.40069333 148.56022221 353.00061749 150.22303545 351.39453125 152.63110352 C348.93292108 153.8619086 347.32956132 153.75154329 344.57763672 153.74462891 C343.57675018 153.74455338 342.57586365 153.74447784 341.54464722 153.74440002 C340.46128082 153.73923874 339.37791443 153.73407745 338.26171875 153.72875977 C337.1547464 153.72734482 336.04777405 153.72592987 334.90725708 153.72447205 C331.36132132 153.71886124 327.81544802 153.70630688 324.26953125 153.69360352 C321.86979258 153.68858991 319.47005292 153.68402676 317.0703125 153.67993164 C311.178364 153.6688883 305.28645209 153.65213962 299.39453125 153.63110352 C299.06453125 154.62110352 298.73453125 155.61110352 298.39453125 156.63110352 C296.8984375 158.13891602 296.8984375 158.13891602 294.95703125 159.75610352 C291.72176692 162.49942247 288.53864926 165.28341703 285.39453125 168.13110352 C280.07118432 172.93018143 274.70589786 177.67188301 269.2421875 182.31079102 C263.28939356 187.37204712 257.41435022 192.48082318 251.70703125 197.81860352 C246.96389973 202.25314575 242.07263281 206.41859068 237.0078125 210.48657227 C233.53165642 213.33920259 230.23201008 216.36736496 226.91015625 219.39672852 C224.3812283 221.64291918 221.78403211 223.76641569 219.14453125 225.88110352 C213.39433445 230.5301988 208.03221386 235.54257948 202.64453125 240.59985352 C199.47885036 243.56767935 196.24208184 246.44229082 192.9453125 249.26391602 C191.34230476 250.63459557 191.34230476 250.63459557 189.8125 252.31079102 C188.39453125 253.63110352 188.39453125 253.63110352 186.39453125 253.63110352 C186.39453125 254.29110352 186.39453125 254.95110352 186.39453125 255.63110352 C186.9889502 255.90712402 187.58336914 256.18314453 188.19580078 256.4675293 C190.27727849 257.56905303 191.81663949 258.696136 193.57421875 260.24829102 C194.46173828 261.0255957 194.46173828 261.0255957 195.3671875 261.81860352 C195.99496094 262.37547852 196.62273437 262.93235352 197.26953125 263.50610352 C198.62075407 264.69138669 199.97232428 265.87627396 201.32421875 267.06079102 C202.00581055 267.65988281 202.68740234 268.25897461 203.38964844 268.8762207 C206.37060715 271.48546708 209.38156907 274.05895763 212.39453125 276.63110352 C220.39334081 283.47416579 228.34094927 290.37593317 236.29003906 297.27661133 C238.17873886 298.9159521 240.0677966 300.55487917 241.95703125 302.19360352 C242.884552 302.99846191 242.884552 302.99846191 243.83081055 303.81958008 C247.49557267 306.99631509 251.17526643 310.15468274 254.86572266 313.30151367 C259.6747006 317.40293955 264.42768983 321.54057055 269.08203125 325.81860352 C272.55589434 329.00847196 276.0936315 332.05159246 279.76953125 335.00610352 C283.9726777 338.39496518 287.95654321 341.94351448 291.89453125 345.63110352 C295.87467957 349.35757464 299.9046977 352.94660148 304.14453125 356.38110352 C305.02109375 357.09524414 305.89765625 357.80938477 306.80078125 358.54516602 C308.55536805 359.95623432 310.32689547 361.34645193 312.11328125 362.71704102 C314.43614028 364.58823301 316.51288749 366.31668169 318.39453125 368.63110352 C318.64453125 372.50610352 318.64453125 372.50610352 317.39453125 375.63110352 C314.15077923 377.79360486 313.24212514 377.88662276 309.49397278 377.9119873 C308.48329742 377.92340759 307.47262207 377.93482788 306.43132019 377.94659424 C305.32323502 377.94882996 304.21514984 377.95106567 303.07348633 377.95336914 C301.90571655 377.96329895 300.73794678 377.97322876 299.53479004 377.98345947 C295.66119042 378.01273241 291.78775469 378.02631262 287.9140625 378.03735352 C286.57850229 378.04282555 285.24294304 378.04853836 283.90738487 378.05448914 C277.6304284 378.08183872 271.35352409 378.10117005 265.07651216 378.10889292 C257.84185802 378.11784376 250.60796164 378.15288902 243.37353784 378.21089411 C237.77508158 378.25421576 232.17683777 378.27430622 226.57821578 378.27697515 C223.2374876 378.27906591 219.89803636 378.29367427 216.55738258 378.32661438 C212.82519065 378.36078305 209.09483436 378.35696478 205.36254883 378.34399414 C204.26458481 378.36242371 203.16662079 378.38085327 202.03538513 378.39984131 C194.69007919 378.32000495 190.69958411 376.68993053 185.39453125 371.63110352 C184.88294873 371.17957664 184.37136621 370.72804977 183.8442812 370.26284027 C182.39822017 368.97598597 180.9896121 367.64743858 179.58203125 366.31860352 C174.89183134 361.93879546 170.04317494 357.836745 165.04296875 353.81079102 C162.42178006 351.65352953 159.90298844 349.41799351 157.39453125 347.13110352 C153.97713753 344.01651683 150.48930775 341.03923731 146.89453125 338.13110352 C142.44254518 334.52949681 138.1873771 330.76592609 133.95703125 326.90844727 C130.28362978 323.6438237 126.47136588 320.56088368 122.64453125 317.47875977 C120.39453125 315.63110352 120.39453125 315.63110352 118.39453125 313.63110352 C113.58792269 313.76324396 111.01639294 316.42764763 107.76953125 319.63110352 C106.70276782 320.64649028 105.63371475 321.65947643 104.5625 322.67016602 C104.02931152 323.17451172 103.49612305 323.67885742 102.94677734 324.19848633 C100.73849698 326.23657837 98.42329403 328.12329428 96.08203125 330.00610352 C91.00315079 334.0998563 86.06964529 338.33941444 81.15307617 342.625 C78.0673473 345.3142538 74.97628091 347.99499063 71.8515625 350.63891602 C64.90228552 356.52516681 58.15315525 362.55112697 51.63085938 368.91210938 C51.04884766 369.46906494 50.46683594 370.02602051 49.8671875 370.59985352 C49.36453369 371.08905273 48.86187988 371.57825195 48.34399414 372.08227539 C41.37311331 377.62056819 36.29906521 378.20968716 27.54003906 378.1328125 C26.36365372 378.13821548 25.18726837 378.14361847 23.97523499 378.14918518 C20.0991171 378.16166102 16.22374336 378.14519184 12.34765625 378.12719727 C9.65199391 378.12544227 6.95634204 378.12878704 4.26068115 378.13160706 C-1.38147641 378.13430376 -7.02342056 378.12087527 -12.66552734 378.09765625 C-19.18849179 378.0709981 -25.71110073 378.06931765 -32.23410106 378.08104461 C-38.51590826 378.0918185 -44.79758687 378.0856418 -51.07938385 378.07148933 C-53.75079641 378.06573127 -56.42211481 378.06581061 -59.09352875 378.07055473 C-62.8187581 378.07345457 -66.5433995 378.05701977 -70.26855469 378.03515625 C-71.37821091 378.0396579 -72.48786713 378.04415955 -73.63114929 378.04879761 C-74.64326981 378.03889297 -75.65539032 378.02898834 -76.69818115 378.01878357 C-77.57861965 378.01635367 -78.45905815 378.01392378 -79.36617661 378.01142025 C-82.10081562 377.54697483 -82.96431191 376.83555804 -84.60546875 374.63110352 C-85.41796875 371.50610352 -85.41796875 371.50610352 -84.60546875 367.63110352 C-81.63266623 364.19419259 -78.15490605 361.45257311 -74.60546875 358.63110352 C-72.79216453 357.15292285 -70.97966007 355.67376055 -69.16796875 354.19360352 C-68.25144531 353.45239258 -67.33492187 352.71118164 -66.390625 351.94750977 C-62.5915396 348.78782163 -58.9821332 345.43823084 -55.34765625 342.09204102 C-52.70530992 339.72070457 -49.99852708 337.47857354 -47.23046875 335.25610352 C-43.0273272 331.8672458 -39.04341718 328.31872915 -35.10546875 324.63110352 C-30.32228118 320.1519679 -25.39732188 315.94659139 -20.28515625 311.84204102 C-17.4729356 309.52175401 -14.78749612 307.10039217 -12.10546875 304.63110352 C-8.56996105 301.37603269 -4.97768088 298.2647347 -1.23046875 295.25610352 C2.99640827 291.84927682 6.9980695 288.277203 10.95703125 284.56860352 C15.39418215 280.41690609 19.92487439 276.51342126 24.71484375 272.76782227 C28.10694406 270.06304257 31.41030857 267.26335538 34.70703125 264.44360352 C35.29411865 263.9440918 35.88120605 263.44458008 36.48608398 262.92993164 C39.94331724 259.96306156 43.21497366 256.89417669 46.39453125 253.63110352 C45.79769531 253.36426758 45.20085937 253.09743164 44.5859375 252.82250977 C42.34878801 251.60623419 41.05033058 250.42753093 39.33203125 248.56860352 C36.45183093 245.59648191 33.43481064 242.97169879 30.20703125 240.38110352 C26.12536028 237.09789896 22.22432776 233.69876347 18.39453125 230.13110352 C14.68609045 226.67930016 10.90945918 223.36587151 6.95703125 220.19360352 C2.17751203 216.34935712 -2.29867219 212.26021307 -6.77148438 208.07055664 C-10.09684152 204.97344886 -13.49257682 202.03495976 -17.04296875 199.19360352 C-22.7562039 194.60798057 -28.05748812 189.63364809 -33.3984375 184.62719727 C-37.05531059 181.20026312 -40.79663189 177.88803379 -44.60546875 174.63110352 C-46.30554581 173.17634859 -48.00545779 171.72140181 -49.70507812 170.26611328 C-50.88376679 169.25762049 -52.06337342 168.25019902 -53.24414062 167.24414062 C-53.80552734 166.76468994 -54.36691406 166.28523926 -54.9453125 165.79125977 C-55.50189041 165.32533417 -56.05846832 164.85940857 -56.63191223 164.37936401 C-58.60546875 162.63110352 -58.60546875 162.63110352 -60.51994324 160.60270691 C-64.48788585 156.57178616 -67.41754023 154.14293894 -73.16943359 153.69458008 C-75.21854167 153.68112363 -77.26822524 153.70864518 -79.31640625 153.77172852 C-80.40635895 153.77033875 -81.49631165 153.76894897 -82.61929321 153.76751709 C-86.07442162 153.76782684 -89.52590822 153.82083554 -92.98046875 153.88110352 C-96.45583549 153.92003378 -99.93032814 153.94741095 -103.40591431 153.95184326 C-105.56181398 153.95668938 -107.71779011 153.98256012 -109.87313843 154.03155518 C-110.84490021 154.03765808 -111.81666199 154.04376099 -112.81787109 154.05004883 C-113.67230804 154.06529602 -114.526745 154.08054321 -115.40707397 154.09625244 C-117.60546875 153.63110352 -117.60546875 153.63110352 -119.37844849 151.79373169 C-121.85308617 147.43217277 -121.12321338 142.16267833 -121.10644531 137.26879883 C-121.10547529 135.26957503 -121.14829576 133.27048769 -121.19140625 131.27172852 C-121.21327243 120.49170271 -121.21327243 120.49170271 -118.19921875 116.77954102 C-114.52963758 113.7399783 -112.8510883 113.50656456 -108.16390991 113.510849 C-107.00842148 113.50947433 -105.85293304 113.50809967 -104.66242981 113.50668335 C-103.38856918 113.51027863 -102.11470856 113.5138739 -100.80224609 113.51757812 C-99.45221458 113.51786009 -98.10218291 113.51770209 -96.75215149 113.51713562 C-93.08088605 113.516848 -89.40965309 113.52273909 -85.73839521 113.52970958 C-81.90401848 113.53594892 -78.06964104 113.53654738 -74.23526001 113.53773499 C-66.97150452 113.54084658 -59.70776402 113.54905767 -52.44401515 113.55908448 C-44.175688 113.57025092 -35.90736016 113.57575741 -27.63902736 113.58077991 C-10.62783247 113.59124042 6.38334781 113.60883655 23.39453125 113.63110352 C23.68328125 112.99172852 23.97203125 112.35235352 24.26953125 111.69360352 C25.39453125 109.63110352 25.39453125 109.63110352 27.39453125 108.63110352 C29.4350813 108.56044735 31.47787382 108.54688376 33.51953125 108.56860352 C36.42765625 108.59954102 36.42765625 108.59954102 39.39453125 108.63110352 C39.72453125 101.70110352 40.05453125 94.77110352 40.39453125 87.63110352 C38.81518799 87.6572876 37.23584473 87.68347168 35.60864258 87.71044922 C29.74762139 87.80096725 23.88666196 87.85835993 18.02514648 87.90576172 C15.48858245 87.93090191 12.95209083 87.96501888 10.41577148 88.00830078 C6.76918674 88.06897013 3.12355993 88.09731925 -0.5234375 88.11938477 C-1.65694138 88.14519119 -2.79044525 88.17099762 -3.95829773 88.19758606 C-5.01901993 88.19796371 -6.07974213 88.19834137 -7.17260742 88.19873047 C-8.10304367 88.20983353 -9.03347992 88.22093658 -9.99211121 88.2323761 C-13.82549389 87.3504042 -15.26648237 85.75220068 -17.60546875 82.63110352 C-18.10174277 79.90253862 -18.29211394 77.79546565 -18.25244141 75.07446289 C-18.261203 74.33073929 -18.2699646 73.58701569 -18.2789917 72.820755 C-18.30093131 70.37152109 -18.28645416 67.92410456 -18.26953125 65.47485352 C-18.27290099 63.7676153 -18.27775494 62.06037943 -18.2840271 60.35314941 C-18.29139099 56.77873853 -18.28070903 53.20495327 -18.25732422 49.63061523 C-18.22883608 45.05369011 -18.24524273 40.47823092 -18.27518654 35.90135956 C-18.29327296 32.37706499 -18.28749546 28.85311677 -18.27454758 25.32881165 C-18.27121725 23.64154384 -18.27528755 21.95424437 -18.28694534 20.26701355 C-18.29967713 17.9064126 -18.28024891 15.54816983 -18.25244141 13.18774414 C-18.26762314 12.14648125 -18.26762314 12.14648125 -18.28311157 11.08418274 C-18.20909548 7.68480853 -17.60056155 5.62289166 -15.85287476 2.69825745 C-10.77595208 -0.53348526 -5.8990758 -0.05707499 0 0 Z " fill="#112233" transform="translate(651.60546875,215.368896484375)"/>
<path d="M0 0 C7.45163939 -0.2554967 14.90213359 -0.4294681 22.35717773 -0.54931641 C24.88788045 -0.59932073 27.41829846 -0.6673504 29.94799805 -0.75439453 C54.35333219 -1.57255797 54.35333219 -1.57255797 61.7578125 4.62890625 C63.55429331 6.37001344 65.30896999 8.15630397 67 10 C68.38325894 11.1874412 69.78105468 12.35837905 71.19921875 13.50390625 C72.36545847 14.51945569 73.5283101 15.53891096 74.6875 16.5625 C75.3155957 17.11131836 75.94369141 17.66013672 76.59082031 18.22558594 C80.98421684 22.07403015 85.31349641 25.99098283 89.63671875 29.91796875 C92.05437477 32.04790373 94.54188302 34.05583191 97.0625 36.0625 C102.92530934 40.79784601 108.36232295 45.9496987 113.81079102 51.15258789 C118.43495758 55.56357401 123.15581759 59.83161795 128 64 C132.29265741 62.59471144 134.82714552 60.55573757 138.0625 57.4375 C141.90014585 53.84711187 145.74610059 50.60329983 150 47.5 C155.07850136 43.77794997 159.68618406 39.74229337 164.296875 35.4609375 C167.77343855 32.29585796 171.40701482 29.3568481 175.0625 26.40234375 C179.42414444 22.8353074 183.68785948 19.15718668 187.95703125 15.48046875 C188.57513672 14.98111816 189.19324219 14.48176758 189.83007812 13.96728516 C192.17486849 11.93898204 192.17486849 11.93898204 194.48242188 8.96630859 C199.80534608 2.8990965 204.57841482 -0.18720523 212.75219727 -0.96606445 C220.102179 -1.2971143 227.42867939 -1.1105479 234.77502441 -0.82397461 C238.30096146 -0.69976849 241.82796091 -0.64611087 245.35546875 -0.5859375 C252.23955088 -0.45839076 259.11946716 -0.25443923 266 0 C265.21536377 0.78391113 264.43072754 1.56782227 263.62231445 2.37548828 C262.09026965 3.9088168 260.56195127 5.44591787 259.04296875 6.9921875 C255.22439537 10.86703459 251.31287871 14.54850268 247.1875 18.09375 C244.64488601 20.30945648 242.16889802 22.59098592 239.6875 24.875 C235.17445987 28.9958725 230.5152819 32.87282517 225.76171875 36.7109375 C221.90514928 39.90747174 218.22780376 43.28446754 214.5390625 46.671875 C210.05173908 50.7864054 205.45302475 54.76608895 200.81640625 58.7109375 C195.0602618 63.61351834 189.35263229 68.54094888 183.8125 73.6875 C179.34458665 77.83256397 174.72713924 81.73269308 169.98046875 85.5546875 C166.4270946 88.47003772 162.96276267 91.47811843 159.5 94.5 C154.34444306 98.99529971 149.12488152 103.38624007 143.80859375 107.69140625 C140.49701407 110.41344185 137.2469 113.20143139 134 116 C128.98828417 120.31820272 123.91781421 124.54906846 118.78125 128.71875 C115.63616307 131.29842804 112.53516951 133.9262814 109.4375 136.5625 C105.69148826 139.74917724 101.92193789 142.88791137 98.0625 145.9375 C92.16055235 150.61703778 86.48545319 155.55444731 80.78027344 160.46972656 C77.96762514 162.88740066 75.14253721 165.29021736 72.3125 167.6875 C71.77737793 168.14084717 71.24225586 168.59419434 70.69091797 169.0612793 C67.26328389 171.95606351 63.79823963 174.8001801 60.3125 177.625 C55.04593291 181.91031442 50.02497698 186.4365005 45 191 C38.33333333 197 38.33333333 197 36 197 C36 197.66 36 198.32 36 199 C15.54 199 -4.92 199 -26 199 C-26 198.34 -26 197.68 -26 197 C-24.44759659 195.60674046 -22.82970015 194.28619872 -21.1875 193 C-16.12509853 188.9526816 -11.31458532 184.71353469 -6.5390625 180.328125 C0.8516524 173.55140795 8.53546533 167.09904002 16.15332031 160.58056641 C19.68408467 157.55859807 23.21213425 154.53345993 26.73974609 151.5078125 C29.70349798 148.96626877 32.66973613 146.42773034 35.640625 143.89453125 C40.87776795 139.42459061 46.09432474 134.9470481 51.1875 130.3125 C54.52227114 127.28287132 57.93287639 124.39391908 61.4375 121.5625 C65.24087503 118.48663412 68.90082652 115.31246834 72.5 112 C77.82225693 107.10291624 83.3860377 102.55552296 89 98 C90.55085552 96.74039664 92.09350382 95.47057167 93.625 94.1875 C94.25664063 93.66542969 94.88828125 93.14335937 95.5390625 92.60546875 C97.21347103 90.76541017 97.61000087 89.42958915 98 87 C97.34 87 96.68 87 96 87 C94.7734375 85.71484375 94.7734375 85.71484375 93.375 83.9375 C90.56436381 80.54980083 87.54024901 77.72183407 84.19140625 74.875 C81.81138917 72.83862175 79.50085389 70.73671448 77.1875 68.625 C73.74621795 65.51471149 70.23678702 62.53521688 66.625 59.625 C62.07139288 55.94363311 57.76417484 52.07225527 53.48095703 48.08642578 C50.24823796 45.09587359 46.93312334 42.26228315 43.5 39.5 C38.38754015 35.38347389 33.57423446 31.0077116 28.76171875 26.55078125 C24.12605983 22.26918963 19.36473331 18.1473168 14.5390625 14.08203125 C13.60489502 13.29107056 13.60489502 13.29107056 12.65185547 12.48413086 C11.41216732 11.43524965 10.16915044 10.39028624 8.92236328 9.34985352 C8.34470215 8.86057373 7.76704102 8.37129395 7.171875 7.8671875 C6.6572168 7.43519043 6.14255859 7.00319336 5.61230469 6.55810547 C3.52003713 4.53617156 1.78224794 2.29567058 0 0 Z " fill="#295270" transform="translate(618,381)"/>
<path d="M0 0 C1.390979 -0.0010952 1.390979 -0.0010952 2.81005859 -0.00221252 C5.86770619 0.00126414 8.92382051 0.04012963 11.98120117 0.0793457 C14.10397001 0.08867353 16.22674962 0.09578978 18.34953308 0.1007843 C23.93112004 0.11985631 29.51205434 0.16895959 35.09338379 0.2243042 C40.79092581 0.27549187 46.48857351 0.29829736 52.1862793 0.32348633 C63.36169594 0.37707753 74.53662861 0.46239339 85.71166992 0.56762695 C84.61940587 3.8444191 83.91237838 4.49071197 81.33666992 6.63012695 C77.95165434 9.49622749 74.65938198 12.43499947 71.39916992 15.44262695 C67.77643087 18.75099609 64.09474101 21.92775053 60.27416992 25.00512695 C55.73770262 28.66398465 51.45300892 32.51631659 47.19018555 36.48364258 C43.97885764 39.45463885 40.68548203 42.26716527 37.27416992 45.00512695 C32.49304467 48.8506651 28.0152147 52.9410964 23.54125977 57.13256836 C20.25946136 60.18957278 16.91060327 63.08466802 13.39916992 65.88012695 C7.86511393 70.31545066 2.77350659 75.15817961 -2.36328125 80.03930664 C-7.08038062 84.49869957 -11.92450069 88.64807278 -17.00317383 92.69262695 C-19.98323752 95.13780742 -22.63703666 97.77302038 -25.28833008 100.56762695 C-23.77899752 104.35791715 -21.6063149 106.15440684 -18.41333008 108.63012695 C-14.21442155 111.96842368 -10.20783563 115.40695065 -6.28833008 119.06762695 C-1.67919206 123.35809935 3.08958416 127.37180183 7.99682617 131.3215332 C10.81840487 133.65593285 13.51757704 136.08753294 16.21166992 138.56762695 C20.68152112 142.68141604 25.30211885 146.53849992 30.02807617 150.3527832 C33.51860421 153.23361202 36.8444106 156.27697098 40.18823242 159.32543945 C42.76249351 161.61278599 45.40456482 163.78310966 48.08666992 165.94262695 C52.64188131 169.6252908 56.95079548 173.49788997 61.23510742 177.4855957 C64.42455503 180.43665676 67.69513785 183.22741213 71.08666992 185.94262695 C76.19494908 190.04551397 80.94200218 194.46033082 85.69995117 198.95703125 C88.8709484 201.93205306 92.05465565 204.70457506 95.58666992 207.25512695 C97.13354492 208.39981445 97.13354492 208.39981445 98.71166992 209.56762695 C98.71166992 210.22762695 98.71166992 210.88762695 98.71166992 211.56762695 C86.68061751 211.82344746 74.6502207 212.01842369 62.6169939 212.13756084 C57.0281848 212.19476714 51.44124752 212.27224537 45.85351562 212.39746094 C40.4522201 212.51772947 35.05271472 212.58290593 29.65018272 212.61127663 C27.5980278 212.63147069 25.54596169 212.67090688 23.49457741 212.73065758 C4.93610457 213.24929489 4.93610457 213.24929489 -2.90625 206.21191406 C-4.77760768 204.38650922 -6.52435771 202.50167951 -8.28833008 200.56762695 C-9.58472444 199.41856133 -10.89451452 198.28378041 -12.23364258 197.18481445 C-13.29370788 196.27094849 -14.35360941 195.35689252 -15.41333008 194.44262695 C-19.57474057 190.86086636 -23.77103992 187.33603095 -28.03833008 183.88012695 C-32.41340755 180.33017374 -36.593822 176.61198875 -40.75708008 172.81762695 C-44.25738216 169.70624733 -47.90105749 166.78499628 -51.54223633 163.84106445 C-55.16423786 160.84247997 -58.63575462 157.69470621 -62.09692383 154.51293945 C-64.09150935 152.74234481 -66.12961302 151.13134455 -68.28833008 149.56762695 C-66.6374123 145.27524072 -63.55078442 142.68823545 -60.28833008 139.56762695 C-60.61833008 139.23762695 -60.94833008 138.90762695 -61.28833008 138.56762695 C-61.36012972 137.04834658 -61.37225015 135.52595214 -61.35083008 134.00512695 C-61.34180664 133.17883789 -61.3327832 132.35254883 -61.32348633 131.5012207 C-61.30608398 130.5440918 -61.30608398 130.5440918 -61.28833008 129.56762695 C-65.83293944 132.46902658 -69.91075266 135.65641423 -73.97583008 139.19262695 C-74.58595947 139.71896729 -75.19608887 140.24530762 -75.82470703 140.78759766 C-79.59527187 144.05404206 -83.30115312 147.38139337 -86.97583008 150.75512695 C-91.30762023 154.72698702 -95.77645376 158.46859317 -100.34692383 162.16137695 C-103.66220858 164.87348241 -106.9170583 167.64864973 -110.16333008 170.44262695 C-114.68867827 174.33734836 -119.2256496 178.21669123 -123.78833008 182.06762695 C-125.4032838 183.43323811 -127.01780344 184.79936004 -128.63208008 186.16577148 C-129.75673185 187.11768046 -130.88174445 188.06916325 -132.00708008 189.02026367 C-133.17804653 190.0112071 -134.34698185 191.00455545 -135.51391602 192.00024414 C-136.70126454 193.00723593 -137.89737985 194.00397709 -139.10180664 194.99047852 C-142.07851575 197.46864145 -144.59864778 199.84357695 -146.86645508 202.9934082 C-150.98290759 208.32452635 -154.28567513 211.16973467 -161.17944336 212.08325195 C-171.20182806 212.74608929 -181.27828768 212.22160409 -191.28833008 211.56762695 C-191.28833008 210.90762695 -191.28833008 210.24762695 -191.28833008 209.56762695 C-189.71546324 208.15324289 -188.07693012 206.81158294 -186.41333008 205.50512695 C-182.59997445 202.4573683 -178.89024199 199.36262354 -175.28833008 196.06762695 C-171.06550448 192.22326214 -166.70188435 188.60237161 -162.26489258 185.0090332 C-158.94048378 182.28231995 -155.67241802 179.49675016 -152.41333008 176.69262695 C-151.82052246 176.18296387 -151.22771484 175.67330078 -150.61694336 175.14819336 C-149.42141846 174.1202563 -148.22594297 173.09226177 -147.03051758 172.06420898 C-138.89290721 165.07380098 -130.65701298 158.22384371 -122.31152344 151.48291016 C-117.20586215 147.34572267 -112.20139269 143.10338109 -107.22827148 138.80834961 C-102.9019291 135.07652321 -98.50111815 131.44673386 -94.06567383 127.8449707 C-90.9443674 125.28558724 -87.86379584 122.68172779 -84.78833008 120.06762695 C-80.84182527 116.71315568 -76.87190936 113.39540866 -72.85083008 110.13012695 C-63.5168846 102.52418595 -54.41657633 94.64902219 -45.49536133 86.5637207 C-40.99395183 82.49253441 -36.40030458 78.52762675 -31.80786133 74.55981445 C-25.3082918 68.94173871 -18.83851688 63.30115665 -12.46801758 57.53637695 C-7.6463496 53.18132201 -2.73821294 48.94098588 2.24291992 44.76928711 C8.58559954 39.44943938 14.70924228 33.93978102 20.76635742 28.2980957 C26.25541264 23.19007855 31.95142265 18.36783301 37.71166992 13.56762695 C18.57166992 13.23762695 -0.56833008 12.90762695 -20.28833008 12.56762695 C-18.30833008 10.25762695 -16.32833008 7.94762695 -14.28833008 5.56762695 C-13.53115189 4.60995926 -12.77397369 3.65229156 -11.99385071 2.66560364 C-8.06818577 -0.37852525 -4.83896785 -0.0999457 0 0 Z " fill="#0C3851" transform="translate(845.288330078125,368.432373046875)"/>
<path d="M0 0 C8.86875 -0.103125 17.7375 -0.20625 26.875 -0.3125 C29.63472168 -0.35802002 32.39444336 -0.40354004 35.23779297 -0.45043945 C56.29927402 -0.65265849 73.57681121 1.46057578 89.75 16.0625 C100.18875849 26.98852549 104.4197003 42.33115615 104.21484375 57.171875 C103.04629729 72.5541957 98.06361889 85.26291153 87 96 C86.4225 96.58652344 85.845 97.17304687 85.25 97.77734375 C64.4699902 117.40845878 21.98746963 111 0 111 C0 74.37 0 37.74 0 0 Z " fill="#0F1F30" transform="translate(451,655)"/>
<path d="M0 0 C2.68847308 1.23845209 4.45015027 2.89966896 6.59765625 4.9375 C10.153115 8.23713279 13.7577248 11.3941226 17.53515625 14.4375 C21.99791838 18.04782442 26.26235158 21.82177929 30.50390625 25.6875 C33.12360435 28.01612053 35.81030935 30.23312947 38.53515625 32.4375 C42.12993275 35.3456338 45.61776253 38.32291332 49.03515625 41.4375 C53.34637912 45.36611038 57.81222152 49.05694266 62.34765625 52.72265625 C65.74184852 55.51990482 69.00752075 58.44395879 72.2578125 61.40625 C75.20044074 63.94143741 77.0452789 64.0651789 80.84910583 64.07794189 C81.86563232 64.08365204 82.88215881 64.08936218 83.92948914 64.09524536 C85.04902481 64.09636322 86.16856049 64.09748108 87.32202148 64.09863281 C88.4976767 64.10359772 89.67333191 64.10856262 90.88461304 64.11367798 C94.11393775 64.12579789 97.34322624 64.13324749 100.57256961 64.13768864 C102.58908859 64.14061823 104.60560188 64.14472278 106.622118 64.14919281 C112.92843488 64.16286769 119.23473876 64.17253485 125.54106945 64.1763947 C132.82647627 64.18087807 140.11169572 64.19843875 147.39704555 64.2273953 C153.02511559 64.24899026 158.65313282 64.25909778 164.28124386 64.26043582 C167.64436577 64.26148527 171.00731155 64.26742258 174.37038994 64.28525543 C178.12003824 64.30223287 181.86922578 64.30045599 185.61889648 64.29394531 C186.73640793 64.3031601 187.85391937 64.31237488 189.0052948 64.3218689 C190.53431427 64.31351517 190.53431427 64.31351517 192.09422302 64.30499268 C192.98115561 64.30645924 193.86808821 64.3079258 194.78189754 64.3094368 C197.53936036 63.85427295 198.32360245 63.1020294 200.03515625 60.9375 C200.69515625 59.9475 201.35515625 58.9575 202.03515625 57.9375 C206.05174439 58.17841782 210.06778139 58.42705754 214.08349609 58.68212891 C216.10230075 58.80886788 218.1214606 58.9299088 220.140625 59.05078125 C241.47341845 60.41692073 241.47341845 60.41692073 249.03515625 62.9375 C248.70515625 63.9275 248.37515625 64.9175 248.03515625 65.9375 C239.0749629 68.18880486 230.21026637 69.29931862 221.00390625 69.94140625 C219.83437912 70.02502914 218.66485199 70.10865204 217.45988464 70.19480896 C204.18578145 71.11178314 190.89935257 71.74602165 177.60668945 72.31518555 C174.83326972 72.43422796 172.06022555 72.55901069 169.28735352 72.69018555 C114.715423 75.26581575 60.02366927 75.10794804 5.40329605 75.06606978 C-0.08897097 75.06229254 -5.58121996 75.0636685 -11.07348633 75.06787109 C-43.4717609 75.09198169 -75.86338696 75.02249172 -108.2578125 74.484375 C-109.47132574 74.464426 -110.68483898 74.44447701 -111.93512535 74.42392349 C-146.30354141 73.8428773 -180.66951243 72.81128543 -214.96484375 70.4375 C-215.8373175 70.37773987 -216.70979126 70.31797974 -217.60870361 70.25640869 C-246.33250431 68.25366972 -246.33250431 68.25366972 -250.96484375 65.9375 C-250.63484375 64.6175 -250.30484375 63.2975 -249.96484375 61.9375 C-234.00108416 59.53813734 -218.07043972 58.01236424 -201.96484375 56.9375 C-201.46984375 60.4025 -201.46984375 60.4025 -200.96484375 63.9375 C-185.04857437 64.03103002 -169.13237943 64.10152153 -153.21590328 64.14474869 C-145.82523843 64.16535523 -138.43474455 64.19343905 -131.04418945 64.23925781 C-124.60096401 64.27918436 -118.15786242 64.30494669 -111.7145167 64.31385398 C-108.30420601 64.31905899 -104.89424957 64.33125202 -101.48405266 64.36042023 C-97.67266712 64.38945606 -93.86201545 64.39345572 -90.05053711 64.39160156 C-88.9255632 64.40598267 -87.80058929 64.42036377 -86.64152527 64.43518066 C-78.96445553 64.39476802 -74.65883246 63.18901456 -68.8125 58.04296875 C-68.22339844 57.41003906 -67.63429688 56.77710938 -67.02734375 56.125 C-63.84826533 52.81778214 -60.56320283 49.76657184 -57.0859375 46.77734375 C-54.73993317 44.74241181 -52.44747925 42.65459033 -50.15234375 40.5625 C-45.8825572 36.70801184 -41.47762864 33.06403529 -37.0078125 29.4453125 C-33.48393868 26.54117002 -30.03334284 23.56108216 -26.58984375 20.5625 C-21.67566275 16.28455234 -16.74799374 12.02479444 -11.77734375 7.8125 C-11.24898926 7.36342285 -10.72063477 6.9143457 -10.17626953 6.45166016 C-8.78009341 5.27118667 -7.37290423 4.10377231 -5.96484375 2.9375 C-5.26746094 2.32132813 -4.57007813 1.70515625 -3.8515625 1.0703125 C-1.96484375 -0.0625 -1.96484375 -0.0625 0 0 Z " fill="#C1C1C1" transform="translate(768.96484375,528.0625)"/>
<path d="M0 0 C147.84 0 295.68 0 448 0 C448 4.95 448 9.9 448 15 C300.16 15 152.32 15 0 15 C0 10.05 0 5.1 0 0 Z " fill="#EA8F3D" transform="translate(544,341)"/>
<path d="M0 0 C8.58 0 17.16 0 26 0 C26.33 14.85 26.66 29.7 27 45 C29.660625 42.36 32.32125 39.72 35.0625 37 C35.8862915 36.1853125 36.71008301 35.370625 37.55883789 34.53125 C41.71362252 30.39188848 45.68099041 26.16067436 49.50561523 21.71484375 C51.24989909 19.71323457 53.0903624 17.84378803 55 16 C58.32765042 12.72404123 61.42526885 9.31197733 64.45703125 5.76171875 C64.96621094 5.18035156 65.47539063 4.59898437 66 4 C66.56460938 3.21206055 66.56460938 3.21206055 67.140625 2.40820312 C69.97221471 0.26369033 72.88783772 0.63000229 76.29296875 0.70703125 C77.35201164 0.71339851 77.35201164 0.71339851 78.43244934 0.71989441 C80.68452303 0.73666966 82.93569742 0.77431757 85.1875 0.8125 C86.71548185 0.82754843 88.24347776 0.84123656 89.77148438 0.85351562 C93.51466872 0.88656911 97.25718196 0.93834168 101 1 C96.96849135 6.70123685 92.57820388 11.65267682 87.5625 16.5 C83.75305278 20.20417079 80.02335784 23.90879167 76.5546875 27.9375 C72.76378379 32.33839117 68.69247683 36.41914458 64.5625 40.5 C63.83095703 41.22703125 63.09941406 41.9540625 62.34570312 42.703125 C60.56610176 44.47109499 58.78419082 46.23666378 57 48 C58.83592729 51.86746486 61.27000557 55.04975456 63.9375 58.375 C64.9349665 59.63145432 65.9323603 60.88796636 66.9296875 62.14453125 C67.43983398 62.78471191 67.94998047 63.42489258 68.47558594 64.08447266 C70.84978236 67.06780788 73.20684893 70.06451336 75.5625 73.0625 C76.01882813 73.64249756 76.47515625 74.22249512 76.9453125 74.82006836 C80.3795188 79.19148615 83.77030312 83.59481319 87.140625 88.015625 C89.46656007 91.05267398 91.83797208 94.04488692 94.2578125 97.0078125 C94.80703369 97.68271729 95.35625488 98.35762207 95.92211914 99.05297852 C96.99358096 100.36555513 98.07066847 101.67356499 99.15405273 102.97631836 C101.5815219 105.95349417 103.26228659 108.22747392 104 112 C99.60805472 112.2992677 95.2216503 112.51546389 90.82250977 112.65917969 C89.33089824 112.7191213 87.83998006 112.80072554 86.35083008 112.90527344 C74.01051238 113.74919728 74.01051238 113.74919728 69.14111328 109.51269531 C66.84306874 106.44194584 64.89841387 103.32958298 63 100 C62.0854816 98.75483772 61.14789794 97.52568595 60.171875 96.328125 C58.91698539 94.73320079 57.66220858 93.138187 56.40893555 91.54199219 C53.77874921 88.20596873 51.10977366 84.90511068 48.41015625 81.625 C47.81170898 80.89635742 47.21326172 80.16771484 46.59667969 79.41699219 C45.42345601 77.99204236 44.2458358 76.57069903 43.06347656 75.15332031 C42.53334961 74.50975586 42.00322266 73.86619141 41.45703125 73.203125 C40.98241455 72.63239258 40.50779785 72.06166016 40.01879883 71.47363281 C39 70 39 70 39 68 C38.01 68 37.02 68 36 68 C35.74355713 68.59361328 35.48711426 69.18722656 35.22290039 69.79882812 C33.89533658 72.18838999 32.46850701 73.41701217 30.43359375 75.21875 C25.07118734 81.21374519 26.00181817 88.92557749 26.0625 96.5 C26.04937291 98.00523909 26.03312402 99.51045436 26.01367188 101.015625 C25.96727315 104.67910673 25.98508115 108.33422663 26 112 C17.42 112 8.84 112 0 112 C0 75.04 0 38.08 0 0 Z " fill="#101F30" transform="translate(797,654)"/>
<path d="M0 0 C27.39 0 54.78 0 83 0 C83 7.26 83 14.52 83 22 C63.86 22 44.72 22 25 22 C25 29.26 25 36.52 25 44 C42.16 44 59.32 44 77 44 C77 51.26 77 58.52 77 66 C60.17 66 43.34 66 26 66 C26 73.26 26 80.52 26 88 C45.14 88 64.28 88 84 88 C84 95.26 84 102.52 84 110 C56.28 110 28.56 110 0 110 C0 73.7 0 37.4 0 0 Z " fill="#0E1E2F" transform="translate(578,655)"/>
<path d="M0 0 C27.2876115 -2.35092526 27.2876115 -2.35092526 34.40185547 1.19824219 C37.9975113 4.36964072 39.93076041 8.40705263 41.88085938 12.72265625 C43.94931258 16.93175998 46.77364695 20.63616417 49.5 24.4375 C50.25941895 25.56466431 50.25941895 25.56466431 51.03417969 26.71459961 C51.50758789 27.40561768 51.98099609 28.09663574 52.46875 28.80859375 C52.88576172 29.42532959 53.30277344 30.04206543 53.73242188 30.67749023 C54.15072266 31.11391846 54.56902344 31.55034668 55 32 C55.99 32 56.98 32 58 32 C59.35673975 30.65896018 59.35673975 30.65896018 60.53125 28.80859375 C61.0046582 28.11757568 61.47806641 27.42655762 61.96582031 26.71459961 C62.47209961 25.96315674 62.97837891 25.21171387 63.5 24.4375 C64.31742676 23.29776733 64.31742676 23.29776733 65.15136719 22.13500977 C67.8299493 18.37493258 70.20614542 14.74313084 72.109375 10.53125 C74.35739699 6.001425 76.34164771 2.32396758 81 0 C91.51852687 -1.85294574 102.41877992 -0.91160993 113 0 C110.27919089 5.03285817 107.27435084 9.35779112 103.625 13.75 C98.21033936 20.38877128 93.07764127 27.20314537 88.03540039 34.12817383 C85.43121484 37.70440336 82.82111413 41.26295722 80.078125 44.734375 C79.64781982 45.28391846 79.21751465 45.83346191 78.77416992 46.3996582 C77.65155653 47.82447017 76.51577708 49.2388818 75.37890625 50.65234375 C73.7802979 52.82524157 73.7802979 52.82524157 74.24487305 54.89990234 C75.09807092 57.27274687 76.1935824 58.93007135 77.703125 60.94921875 C78.26491455 61.7064624 78.8267041 62.46370605 79.40551758 63.24389648 C80.01419678 64.05028564 80.62287598 64.8566748 81.25 65.6875 C81.87608154 66.52676025 82.50216309 67.36602051 83.1472168 68.23071289 C88.38114998 75.22880453 93.68639255 82.17287688 99.01171875 89.1015625 C103.05505966 94.36580334 107.02973216 99.68052858 111 105 C111.86238281 106.08861328 111.86238281 106.08861328 112.7421875 107.19921875 C114 109 114 109 114 111 C86.84725574 113.83978822 86.84725574 113.83978822 79.36962891 109.45898438 C75.22936203 105.44670562 72.6938135 100.57580879 70.22509766 95.41650391 C68.3232174 91.665047 65.83676151 88.41222664 63.3125 85.0625 C61.16005482 82.07266519 59.04378366 79.06567549 57 76 C53.55916213 77.14694596 53.18086394 77.8011138 51.25 80.7265625 C50.73131348 81.50475342 50.21262695 82.28294434 49.67822266 83.0847168 C49.12440918 83.92301025 48.5705957 84.76130371 48 85.625 C47.40880371 86.47425049 46.81760742 87.32350098 46.20849609 88.19848633 C43.41398441 92.2281767 40.84488702 96.1394651 38.7890625 100.59765625 C36.54994903 105.0464687 34.58910428 108.71167655 30 111 C19.80581993 112.82277221 9.25539745 111.91390298 -1 111 C0.24528521 107.56989309 1.62552538 104.90978134 3.90625 102.06640625 C4.47996338 101.34259766 5.05367676 100.61878906 5.64477539 99.87304688 C6.56311157 98.72932617 6.56311157 98.72932617 7.5 97.5625 C12.65117789 91.04524575 17.6329464 84.4641414 22.40234375 77.6640625 C24.39150029 74.83282177 26.43832529 72.0493917 28.50390625 69.2734375 C29.10388428 68.46132813 29.7038623 67.64921875 30.32202148 66.8125 C31.50299904 65.2159015 32.69107384 63.62452273 33.88696289 62.0390625 C34.42184326 61.31203125 34.95672363 60.585 35.5078125 59.8359375 C35.98879395 59.19188965 36.46977539 58.5478418 36.96533203 57.88427734 C38.32087799 55.77391229 38.32087799 55.77391229 38 52 C36.36606227 49.53113805 34.70439737 47.25382652 32.875 44.9375 C31.7671999 43.49949025 30.66047301 42.06065323 29.5546875 40.62109375 C28.97170898 39.86683105 28.38873047 39.11256836 27.78808594 38.33544922 C24.80043113 34.43322286 21.90367371 30.46488 19 26.5 C13.90631603 19.56173347 8.76564846 12.66127541 3.5546875 5.81054688 C0 1.10839844 0 1.10839844 0 0 Z " fill="#E77B27" transform="translate(970,655)"/>
<path d="M0 0 C14.43840427 -0.58182329 29.61666212 3.25826433 41.80859375 11.2265625 C42.79859375 12.7115625 42.79859375 12.7115625 43.80859375 14.2265625 C40.17859375 20.1665625 36.54859375 26.1065625 32.80859375 32.2265625 C27.74872488 30.20261495 22.87950397 27.91464927 17.96484375 25.56640625 C10.27453296 22.30183125 -0.49456028 21.37009642 -8.37890625 24.4765625 C-12.05480592 26.68823112 -12.05480592 26.68823112 -14.19140625 30.2265625 C-14.49424071 33.16405681 -14.5291742 35.57176718 -13.19140625 38.2265625 C-8.53369793 41.41557134 -4.35491639 42.92503497 1.18359375 44.1640625 C2.59045407 44.49612267 3.99668611 44.83085377 5.40234375 45.16796875 C6.48515625 45.42537842 6.48515625 45.42537842 7.58984375 45.68798828 C22.55793577 49.32130815 36.29268967 53.12058843 44.90234375 66.98828125 C48.71379946 75.12291588 47.92621506 85.90689535 45.18359375 94.2265625 C41.16932424 103.68676407 34.73657939 108.7302066 25.44140625 112.64453125 C7.13091666 119.5106691 -13.76736341 117.50472935 -31.4609375 109.625 C-35.62096054 107.49440165 -39.41127109 104.96334825 -43.19140625 102.2265625 C-44.18140625 101.5665625 -45.17140625 100.9065625 -46.19140625 100.2265625 C-44.46574991 96.40948571 -42.09341091 93.07521609 -39.69140625 89.6640625 C-36.4062364 84.96952361 -36.4062364 84.96952361 -33.19140625 80.2265625 C-29.99665861 81.70669788 -27.30587886 83.56440651 -24.44140625 85.6015625 C-15.09053887 91.58961795 -2.27241299 95.00931122 8.80859375 93.2265625 C13.03075032 91.86989357 16.65279039 90.38236586 19.80859375 87.2265625 C20.24073671 85.1602012 20.24073671 85.1602012 20.24609375 82.8515625 C20.28605469 82.08070313 20.32601562 81.30984375 20.3671875 80.515625 C19.52076351 77.04706236 17.77631643 76.11799109 14.80859375 74.2265625 C12.34968 73.26206269 10.019968 72.45269303 7.49609375 71.7265625 C6.79822754 71.51499512 6.10036133 71.30342773 5.38134766 71.08544922 C1.17817153 69.8351433 -3.04353071 68.77748163 -7.31933594 67.80957031 C-18.2838991 65.29495901 -29.85944617 61.64115246 -36.92578125 52.30859375 C-41.87900179 44.1602402 -42.49840417 34.93379215 -40.6875 25.640625 C-37.7952603 15.95575379 -31.93607367 10.11435857 -23.19140625 5.2265625 C-15.55072462 1.97165179 -8.21291864 0.58304686 0 0 Z " fill="#102031" transform="translate(726.19140625,651.7734375)"/>
<path d="M0 0 C35.97 0 71.94 0 109 0 C108.67 1.32 108.34 2.64 108 4 C107.97439916 6.1874494 107.95430872 8.37496537 107.9375 10.5625 C107.39529607 23.53968018 101.13651066 37.77947544 92 47 C91.47019531 47.55558594 90.94039062 48.11117187 90.39453125 48.68359375 C83.12387648 55.60884925 74.10254255 58.38527731 64.3359375 59.640625 C62.04557028 59.7573085 62.04557028 59.7573085 61 61 C59.09756238 61.09391296 57.19161541 61.11743658 55.28686523 61.11352539 C54.04851929 61.11340454 52.81017334 61.11328369 51.53430176 61.11315918 C50.22231812 61.10804321 48.91033447 61.10292725 47.55859375 61.09765625 C46.36045044 61.09664917 45.16230713 61.09564209 43.92785645 61.09460449 C39.4310613 61.08935305 34.93427974 61.07539195 30.4375 61.0625 C20.393125 61.041875 10.34875 61.02125 0 61 C0 40.87 0 20.74 0 0 Z " fill="#28506E" transform="translate(647,229)"/>
<path d="M0 0 C2.68847308 1.23845209 4.45015027 2.89966896 6.59765625 4.9375 C10.153115 8.23713279 13.7577248 11.3941226 17.53515625 14.4375 C21.99791838 18.04782442 26.26235158 21.82177929 30.50390625 25.6875 C33.12360435 28.01612053 35.81030935 30.23312947 38.53515625 32.4375 C43.04320721 36.08717736 47.37898126 39.88106841 51.6640625 43.7890625 C54.60800165 46.45655267 57.6155191 49.04563587 60.63671875 51.625 C61.09820313 52.058125 61.5596875 52.49125 62.03515625 52.9375 C62.03515625 53.2675 62.03515625 53.5975 62.03515625 53.9375 C20.78515625 53.9375 -20.46484375 53.9375 -62.96484375 53.9375 C-62.96484375 51.9375 -62.96484375 51.9375 -61.56640625 50.52734375 C-60.91414062 49.98207031 -60.261875 49.43679688 -59.58984375 48.875 C-56.3893803 46.15826214 -53.25178312 43.39414781 -50.15234375 40.5625 C-45.8825572 36.70801184 -41.47762864 33.06403529 -37.0078125 29.4453125 C-33.48393868 26.54117002 -30.03334284 23.56108216 -26.58984375 20.5625 C-21.67566275 16.28455234 -16.74799374 12.02479444 -11.77734375 7.8125 C-11.24898926 7.36342285 -10.72063477 6.9143457 -10.17626953 6.45166016 C-8.78009341 5.27118667 -7.37290423 4.10377231 -5.96484375 2.9375 C-5.26746094 2.32132813 -4.57007813 1.70515625 -3.8515625 1.0703125 C-1.96484375 -0.0625 -1.96484375 -0.0625 0 0 Z " fill="#FCFCFC" transform="translate(768.96484375,528.0625)"/>
<path d="M0 0 C12.24803437 -0.18558903 24.49573276 -0.32762334 36.74488831 -0.41449738 C42.43313357 -0.45619916 48.12041494 -0.51273666 53.80810547 -0.60351562 C59.30006338 -0.69061922 64.79109592 -0.73831181 70.28369141 -0.75901794 C72.37612472 -0.77376808 74.46850895 -0.80257319 76.56054688 -0.84584045 C92.96844396 -1.17160383 92.96844396 -1.17160383 97.98242188 1.7199707 C99.9856556 3.71108441 101.45046428 5.65152445 103 8 C104.17565636 9.11871027 105.38120523 10.20757248 106.625 11.25 C107.285 11.81847656 107.945 12.38695312 108.625 12.97265625 C109.800625 13.97619141 109.800625 13.97619141 111 15 C112.04189244 15.89426828 113.08353963 16.78882233 114.125 17.68359375 C118.96461832 21.83862006 123.81046388 25.9863128 128.6640625 30.125 C135.53301742 35.987971 142.30608886 41.93692865 149 48 C153.81172358 52.33843929 158.65830843 56.32758704 164 60 C161.02647799 63.07846984 157.88746352 65.80682566 154.5625 68.5 C153.63566406 69.2528125 152.70882812 70.005625 151.75390625 70.78125 C149.17384094 72.85994091 146.58905255 74.93251702 144 77 C141.07356763 75.67143806 138.9299237 74.20435823 136.609375 71.98828125 C135.98667725 71.39901855 135.36397949 70.80975586 134.72241211 70.20263672 C134.07151611 69.5788916 133.42062012 68.95514648 132.75 68.3125 C131.39270359 67.02912618 130.03463987 65.74656335 128.67578125 64.46484375 C128.03205566 63.85624512 127.38833008 63.24764648 126.72509766 62.62060547 C123.56400066 59.65098165 120.3004886 56.81264266 117 54 C114.72802986 52.06382881 112.45723305 50.12629328 110.1875 48.1875 C109.58115723 47.67002197 108.97481445 47.15254395 108.35009766 46.61938477 C104.60890618 43.41472075 100.93867711 40.14775173 97.3125 36.8125 C92.04634495 31.98647814 86.5725377 27.4660482 81 23 C80.07316406 22.25105469 79.14632812 21.50210937 78.19140625 20.73046875 C71.34846095 14.68402726 71.34846095 14.68402726 62.81689453 12.83984375 C61.75793976 12.85225098 60.69898499 12.8646582 59.60794067 12.87744141 C58.46114838 12.89726074 57.31435608 12.91708008 56.1328125 12.9375 C53.69532021 12.94644363 51.25781764 12.95287138 48.8203125 12.95703125 C44.98392576 12.97121111 41.15021371 12.99952506 37.31445312 13.07177734 C11.60428902 13.51494114 11.60428902 13.51494114 1.85498047 4.34765625 C0 2 0 2 0 0 Z " fill="#0B364E" transform="translate(604,369)"/>
<path d="M0 0 C33.38747346 0 33.38747346 0 42.984375 7.90234375 C50.37882362 15.59772924 51.37355668 25.09049208 51.27734375 35.2890625 C50.67806248 43.30761471 48.29724242 50.74532963 42.63671875 56.60546875 C30.48174022 66.96185857 15.20642732 65 0 65 C0 43.55 0 22.1 0 0 Z " fill="#FCFCFC" transform="translate(477,678)"/>
<path d="M0 0 C33 0 66 0 100 0 C96.93906748 3.82616565 94.72743566 6.20739411 91 9.125 C86.85009592 12.44713066 82.88397719 15.87743828 79 19.5 C74.40412717 23.77748628 69.65114941 27.78125441 64.7578125 31.71875 C60.01650467 35.64073834 55.51298603 39.81872281 51 44 C47.79144096 42.5715811 45.50953093 40.81722955 42.9375 38.4375 C39.60107191 35.40636598 36.20147655 32.51086844 32.6875 29.6875 C28.65569275 26.4204428 24.79695999 23.0319274 21 19.5 C14.86061082 13.79193561 8.55442348 8.20040569 1.6875 3.375 C1.130625 2.92125 0.57375 2.4675 0 2 C0 1.34 0 0.68 0 0 Z " fill="#F9F9FA" transform="translate(718,369)"/>
<path d="M0 0 C7.78029255 3.51368051 11.07878904 10.37523894 14.09765625 18.04296875 C15.28659619 21.93919184 15.387972 24.96509124 15 29 C15.76183594 28.40251953 15.76183594 28.40251953 16.5390625 27.79296875 C24.18809947 21.90578861 30.19157326 19.06683766 40 19 C41.66997441 20.66997441 41.2114271 22.64562688 41.25 24.9375 C41.20820968 31.33977651 39.870674 37.25865201 37 43 C35.02 42.34 33.04 41.68 31 41 C30.79375 41.680625 30.5875 42.36125 30.375 43.0625 C26.87378166 50.54237553 20.6917102 55.9341997 12.93359375 58.75 C11.30462755 59.22388108 9.65362818 59.62104354 8 60 C8.66 58.68 9.32 57.36 10 56 C9.67 56 9.34 56 9 56 C7.58312881 51.74938644 8.80679961 49.28148375 10 45 C7.47014472 45.32386813 7.47014472 45.32386813 5 47 C4.21586611 49.33074052 3.81111083 51.57204102 3.45703125 54.00390625 C3.30621094 54.66261719 3.15539062 55.32132812 3 56 C2.01 56.495 2.01 56.495 1 57 C-4.30764059 46.32795262 -7.22389385 36.9108535 -8 25 C-8.99 25.66 -9.98 26.32 -11 27 C-12.81701367 20.85010757 -11.18404972 16.71410429 -8.61328125 10.95703125 C-6.30937286 6.73412895 -3.423613 3.35454876 0 0 Z " fill="#122535" transform="translate(883,224)"/>
<path d="M0 0 C3.19719551 1.08161458 4.81898589 2.54890249 7.24609375 4.88671875 C12.51028751 9.81556387 18.01278096 14.35723275 23.62109375 18.88671875 C27.29228349 21.88119149 30.95737099 24.88311645 34.62109375 27.88671875 C35.25853516 28.40927246 35.89597656 28.93182617 36.55273438 29.47021484 C43.9283071 35.52032734 51.29302504 41.57965036 58.55859375 47.76171875 C63.01718783 51.55493243 67.53751622 55.25720733 72.12109375 58.8984375 C75.00707907 61.1936977 77.88065035 63.50335579 80.74609375 65.82421875 C81.67679688 66.57574219 82.6075 67.32726562 83.56640625 68.1015625 C84.58347656 68.98521484 84.58347656 68.98521484 85.62109375 69.88671875 C85.62109375 70.21671875 85.62109375 70.54671875 85.62109375 70.88671875 C64.79832978 72.89133384 64.79832978 72.89133384 58.13500977 67.5612793 C56.0607639 65.6094611 54.08365806 63.59284385 52.15722656 61.49511719 C49.47400486 58.68566636 46.47088969 56.25369231 43.49609375 53.76171875 C42.32086319 52.75347935 41.14637005 51.74437969 39.97265625 50.734375 C36.97643484 48.17535209 33.93325667 45.67913942 30.87109375 43.19921875 C26.49601628 39.64926554 22.31560183 35.93108054 18.15234375 32.13671875 C14.65204167 29.02533912 11.00836634 26.10408808 7.3671875 23.16015625 C3.74518597 20.16157177 0.27366921 17.013798 -3.1875 13.83203125 C-5.18208553 12.06143661 -7.2201892 10.45043634 -9.37890625 8.88671875 C-7.68976306 4.74064 -4.90772536 -0.23370121 0 0 Z " fill="#F8F9FA" transform="translate(786.37890625,509.11328125)"/>
<path d="M0 0 C38.61 0 77.22 0 117 0 C117 20.46 117 40.92 117 62 C98.52 62 80.04 62 61 62 C61.495 61.01 61.495 61.01 62 60 C63.71864578 59.70202113 65.45216782 59.48901331 67.1875 59.3125 C77.79805855 57.66843253 87.57246021 53.00351153 94.328125 44.515625 C97.39621256 39.8991568 99.75194197 35.05646286 102 30 C102.40347656 29.18789063 102.80695313 28.37578125 103.22265625 27.5390625 C106.15673369 21.20818573 106.5793126 15.10102034 106.82421875 8.22265625 C107 5 107 5 108 2 C72.36 1.67 36.72 1.34 0 1 C0 0.67 0 0.34 0 0 Z " fill="#0D354D" transform="translate(647,228)"/>
<path d="M0 0 C15.18 0 30.36 0 46 0 C45.22920973 10.02027357 44.17424001 20.01895995 43 30 C30.46 30 17.92 30 5 30 C4.34 26.04 3.68 22.08 3 18 C2.24688815 14.27042197 2.24688815 14.27042197 1.46484375 10.546875 C0.82755667 7.05518445 0.44024535 3.52196277 0 0 Z " fill="#F69739" transform="translate(864,299)"/>
<path d="M0 0 C5.23252799 -0.91088495 9.33082977 -1.1481309 13.828125 1.9453125 C16.62822163 4.56140278 19.31026023 7.2710512 22 10 C23.62177502 11.36249437 25.26697421 12.69773708 26.9375 14 C30.59728825 16.87595959 34.18772975 19.8164184 37.75 22.8125 C42.00385552 26.37273322 46.31155601 29.84145486 50.6875 33.25 C56.0319975 37.41354558 61.28270204 41.67825217 66.5 46 C73.32887124 51.65266867 80.241882 57.1797687 87.23681641 62.625 C90.4570498 65.13626481 93.66508809 67.66306565 96.875 70.1875 C98.05984726 71.11855139 99.24473835 72.04954702 100.4296875 72.98046875 C101.70199219 73.98013672 101.70199219 73.98013672 103 75 C100.03291147 77.38154369 97.05742925 79.73523759 94 82 C90.63850636 80.52459329 88.30364448 78.62080185 85.625 76.125 C81.50819857 72.34772859 77.31998327 68.68023078 73.0625 65.0625 C68.74167087 61.38464099 64.4891243 57.65499436 60.3125 53.8125 C56.81740111 50.60354956 53.2571616 47.53934163 49.5625 44.5625 C45.0260327 40.90364231 40.741339 37.05131037 36.47851562 33.08398438 C33.26718772 30.1129881 29.97381211 27.30046168 26.5625 24.5625 C21.15868526 20.21289767 16.10410744 15.54909112 11.0390625 10.81640625 C7.86628938 7.85693714 4.60298802 5.01201665 1.29296875 2.20703125 C0.86628906 1.80871094 0.43960938 1.41039062 0 1 C0 0.67 0 0.34 0 0 Z " fill="#F7F8F9" transform="translate(619,382)"/>
<path d="M0 0 C16.83 0 33.66 0 51 0 C51 6.93 51 13.86 51 21 C34.17 21 17.34 21 0 21 C0 14.07 0 7.14 0 0 Z " fill="#0D1C2C" transform="translate(907,699)"/>
<path d="M0 0 C3 1 3 1 4.7890625 4.0546875 C5.41131952 5.32313449 6.02291878 6.59685299 6.625 7.875 C6.93695312 8.51308594 7.24890625 9.15117187 7.5703125 9.80859375 C10.73693757 16.34658259 12.37904008 22.07148661 10.37207031 29.24414062 C9.52758779 31.45187335 8.60511452 33.59919315 7.625 35.75 C7.30789063 36.47832031 6.99078125 37.20664062 6.6640625 37.95703125 C6.05578626 39.35353213 5.44185426 40.74758829 4.82128906 42.13867188 C3.82208193 44.40322453 2.89881851 46.69394039 2 49 C-4.36996595 42.63003405 -6.95773634 30.57449948 -7.4375 21.8125 C-7.31758327 14.01791239 -4.29488541 6.44232811 0 0 Z " fill="#1C753C" transform="translate(883,232)"/>
<path d="M0 0 C12.54 0 25.08 0 38 0 C37.22920973 10.02027357 36.17424001 20.01895995 35 30 C22.46 30 9.92 30 -3 30 C-3 29.67 -3 29.34 -3 29 C-1.1128125 28.87625 -1.1128125 28.87625 0.8125 28.75 C7.51923411 27.97655357 15.29057673 26.45589861 20 21.25 C24.16735895 14.4780417 25.09089449 9.18194962 26 1 C17.42 1 8.84 1 0 1 C0 0.67 0 0.34 0 0 Z " fill="#D86B1F" transform="translate(872,299)"/>
<path d="M0 0 C-0.62285209 10.79610297 -4.87256617 20.7475694 -13 28 C-17.69591043 31.62150094 -22.23971859 33.67993551 -28 35 C-27.34 33.68 -26.68 32.36 -26 31 C-26.33 31 -26.66 31 -27 31 C-28.53075273 26.40774181 -26.46850115 23.4407114 -24.578125 19.140625 C-20.50753085 11.03973961 -15.09414924 5.18920848 -7 1 C-4.46029023 0.1994911 -2.70106058 0 0 0 Z " fill="#197139" transform="translate(919,249)"/>
<path d="M0 0 C7.26 0 14.52 0 22 0 C22 4.62 22 9.24 22 14 C-102.08 14 -226.16 14 -354 14 C-354 13.67 -354 13.34 -354 13 C-168.87 12.505 -168.87 12.505 20 12 C19.67 8.7 19.34 5.4 19 2 C16.20826945 1.97309896 13.41679652 1.95320947 10.625 1.9375 C9.8309375 1.92912109 9.036875 1.92074219 8.21875 1.91210938 C3.97607778 1.76959849 3.97607778 1.76959849 0 3 C0 2.01 0 1.02 0 0 Z " fill="#F78923" transform="translate(970,342)"/>
<path d="M0 0 C4.29 0 8.58 0 13 0 C13.66 5.94 14.32 11.88 15 18 C12.215625 18.020625 9.43125 18.04125 6.5625 18.0625 C5.68408447 18.071604 4.80566895 18.08070801 3.90063477 18.09008789 C1.93354026 18.09723091 -0.03353621 18.05031893 -2 18 C-2.33 17.67 -2.66 17.34 -3 17 C-2.85341378 11.11399958 -1.81951217 5.57983731 0 0 Z " fill="#09354C" transform="translate(700,310)"/>
<path d="M0 0 C0.33 0 0.66 0 1 0 C1 15.18 1 30.36 1 46 C-3.63078674 41.36921326 -6.59484982 33.48240288 -7 27 C-7.07347656 26.22527344 -7.14695312 25.45054687 -7.22265625 24.65234375 C-7.72565631 15.68862467 -4.96974401 7.45461602 0 0 Z " fill="#4EAE51" transform="translate(883,232)"/>
<path d="M0 0 C7.85521584 1.05463546 13.70618251 3.69884997 18.609375 10.1015625 C22 15.33988764 22 15.33988764 22 18 C21.34 18 20.68 18 20 18 C20 17.34 20 16.68 20 16 C18.68 15.67 17.36 15.34 16 15 C17.98 17.31 19.96 19.62 22 22 C14.79715823 21.54982239 10.34003793 18.52759627 4.6875 14.25 C1.60747827 10.14330436 0 5.12086262 0 0 Z " fill="#2E963E" transform="translate(856,262)"/>
<path d="M0 0 C2.64 0 5.28 0 8 0 C8.6480612 3.52042699 9.29304487 7.04141124 9.9375 10.5625 C10.11990234 11.55314453 10.30230469 12.54378906 10.49023438 13.56445312 C11.42859372 18.69983788 12.31049938 23.82511643 13 29 C10.36 29 7.72 29 5 29 C2.52742243 19.37343133 1.07630757 9.86404233 0 0 Z " fill="#FDF5EB" transform="translate(864,299)"/>
<path d="M0 0 C7.26 0 14.52 0 22 0 C22 4.62 22 9.24 22 14 C-27.83 14 -77.66 14 -129 14 C-129 13.67 -129 13.34 -129 13 C-79.83 12.67 -30.66 12.34 20 12 C19.67 8.7 19.34 5.4 19 2 C16.20826945 1.97309896 13.41679652 1.95320947 10.625 1.9375 C9.8309375 1.92912109 9.036875 1.92074219 8.21875 1.91210938 C3.97607778 1.76959849 3.97607778 1.76959849 0 3 C0 2.01 0 1.02 0 0 Z " fill="#F38020" transform="translate(970,342)"/>
<path d="M0 0 C0.66 0.33 1.32 0.66 2 1 C0.01502149 4.01018719 -1.98863987 7.00738029 -4 10 C-4.55300781 10.82757813 -5.10601563 11.65515625 -5.67578125 12.5078125 C-9.70552234 18.41809943 -14.12995211 23.76311733 -19 29 C-20.53026006 24.40921982 -18.46933735 21.44426168 -16.58203125 17.14453125 C-12.88338673 9.79290448 -7.87182025 3.1487281 0 0 Z " fill="#6AB175" transform="translate(911,251)"/>
<path d="M0 0 C6.91548629 0.92846807 12.01077538 3.01077538 17 8 C18.5 10.875 18.5 10.875 19 13 C18.443125 12.401875 17.88625 11.80375 17.3125 11.1875 C13.94656262 8.00350518 10.15080938 5.99853785 6 4 C6.30679688 4.56203125 6.61359375 5.1240625 6.9296875 5.703125 C8.02957585 8.06346934 8.60095851 10.20465562 9.125 12.75 C9.29257812 13.54921875 9.46015625 14.3484375 9.6328125 15.171875 C9.81457031 16.07679688 9.81457031 16.07679688 10 17 C6.21533403 15.3034256 3.75387274 13.71250105 2.05078125 9.84375 C1.80714844 9.0703125 1.56351563 8.296875 1.3125 7.5 C1.06113281 6.7265625 0.80976562 5.953125 0.55078125 5.15625 C0 3 0 3 0 0 Z " fill="#419F48" transform="translate(856,262)"/>
<path d="M0 0 C1.12773821 3.38321464 0.73211512 4.59593187 0 8 C-0.07747197 9.76552798 -0.10799073 11.53358456 -0.09765625 13.30078125 C-0.09443359 14.27724609 -0.09121094 15.25371094 -0.08789062 16.25976562 C-0.07951172 17.26716797 -0.07113281 18.27457031 -0.0625 19.3125 C-0.05798828 20.33923828 -0.05347656 21.36597656 -0.04882812 22.42382812 C-0.03708184 24.94927882 -0.02065565 27.47460905 0 30 C-4.35976347 25.97919938 -4.07149098 21.43781296 -4.3125 15.75 C-4.28829819 9.86896052 -2.54590762 5.2395688 0 0 Z " fill="#E0E8E7" transform="translate(880,238)"/>
<path d="M0 0 C-1.98498136 3.01019152 -3.98774204 6.00797452 -6 9 C-6.61101563 9.90878906 -7.22203125 10.81757813 -7.8515625 11.75390625 C-8.45742188 12.63949219 -9.06328125 13.52507812 -9.6875 14.4375 C-10.24824219 15.26121094 -10.80898438 16.08492188 -11.38671875 16.93359375 C-13 19 -13 19 -16 21 C-16.5 18.5 -16.5 18.5 -16 15 C-14.09995968 12.81365224 -12.03384157 10.91651807 -9.8984375 8.9609375 C-7.55100551 6.5362238 -6.91549457 4.204231 -6 1 C-2.71794872 -1.35897436 -2.71794872 -1.35897436 0 0 Z " fill="#66B96B" transform="translate(913,252)"/>
<path d="M0 0 C0 0.66 0 1.32 0 2 C-10.56 2 -21.12 2 -32 2 C-32 1.34 -32 0.68 -32 0 C-27.7643915 -0.16752496 -23.52859426 -0.32809332 -19.29248047 -0.48217773 C-17.85100177 -0.5355959 -16.40959259 -0.59092518 -14.96826172 -0.64819336 C-12.89826447 -0.73010997 -10.82811573 -0.80518359 -8.7578125 -0.87890625 C-6.88826904 -0.94960327 -6.88826904 -0.94960327 -4.98095703 -1.02172852 C-2 -1 -2 -1 0 0 Z " fill="#2E3848" transform="translate(901,764)"/>
<path d="M0 0 C7.26 0 14.52 0 22 0 C22 4.62 22 9.24 22 14 C18.37 14 14.74 14 11 14 C11 13.67 11 13.34 11 13 C15.455 12.505 15.455 12.505 20 12 C19.505 7.05 19.505 7.05 19 2 C16.20826945 1.97309896 13.41679652 1.95320947 10.625 1.9375 C9.8309375 1.92912109 9.036875 1.92074219 8.21875 1.91210938 C3.97607778 1.76959849 3.97607778 1.76959849 0 3 C0 2.01 0 1.02 0 0 Z " fill="#E97921" transform="translate(970,342)"/>
<path d="M0 0 C2.64 0 5.28 0 8 0 C4.25 2 4.25 2 2 2 C2.46019531 3.28777344 2.46019531 3.28777344 2.9296875 4.6015625 C5.41152931 12.48186315 6.3231005 20.76093726 6 29 C3.91469385 25.87204077 3.51606076 24.17398403 2.9296875 20.52734375 C2.75566406 19.46322266 2.58164062 18.39910156 2.40234375 17.30273438 C2.22832031 16.19220703 2.05429687 15.08167969 1.875 13.9375 C1.69324219 12.82310547 1.51148438 11.70871094 1.32421875 10.56054688 C0 2.35138628 0 2.35138628 0 0 Z " fill="#F8D7A4" transform="translate(864,299)"/>
<path d="M0 0 C7.26419717 2.42139906 12.5258443 6.89887859 17 13 C17 13.66 17 14.32 17 15 C16.34 15 15.68 15 15 15 C15 14.34 15 13.68 15 13 C11.91190305 11.23537317 10.76687864 11 7 11 C6.938125 10.4225 6.87625 9.845 6.8125 9.25 C5.68515666 6.12812615 3.5835832 5.00227698 1 3 C0.67 2.01 0.34 1.02 0 0 Z " fill="#27823B" transform="translate(861,265)"/>
<path d="M0 0 C0.33 0 0.66 0 1 0 C1 4.95 1 9.9 1 15 C0.34 14.34 -0.32 13.68 -1 13 C-1.99 13.495 -1.99 13.495 -3 14 C-4.32229189 11.35541621 -4.09677194 9.32238699 -4.0625 6.375 C-4.05347656 5.37210938 -4.04445313 4.36921875 -4.03515625 3.3359375 C-4.02355469 2.56507813 -4.01195312 1.79421875 -4 1 C-3.34 1.66 -2.68 2.32 -2 3 C-1.34 2.01 -0.68 1.02 0 0 Z " fill="#051126" transform="translate(875,247)"/>
<path d="M0 0 C0.33 0 0.66 0 1 0 C1 2.97 1 5.94 1 9 C1.66 9.33 2.32 9.66 3 10 C2.01 12.97 1.02 15.94 0 19 C-2.63180464 15.05229304 -1.8008948 12.26019851 -1.125 7.8125 C-0.96837891 6.68811523 -0.96837891 6.68811523 -0.80859375 5.54101562 C-0.5495672 3.69250796 -0.27616034 1.84602568 0 0 Z " fill="#176B37" transform="translate(885,262)"/>
<path d="M0 0 C2.9517885 3.46071755 5.28901641 6.76756692 7 11 C6.6875 13.375 6.6875 13.375 6 15 C3.39422695 12.72268574 2.3475813 10.78597238 1.3125 7.5 C1.06113281 6.7265625 0.80976562 5.953125 0.55078125 5.15625 C0 3 0 3 0 0 Z " fill="#65C066" transform="translate(856,262)"/>
<path d="M0 0 C0.66 0.66 1.32 1.32 2 2 C-1.63 5.63 -5.26 9.26 -9 13 C-9.66 12.67 -10.32 12.34 -11 12 C-9.54234835 10.37438849 -8.08385614 8.74953066 -6.625 7.125 C-5.81289063 6.22007812 -5.00078125 5.31515625 -4.1640625 4.3828125 C-2.80923795 2.89103817 -1.42494565 1.42494565 0 0 Z " fill="#192737" transform="translate(866,655)"/>
<path d="M0 0 C4.64073925 0.28125692 7.14028602 2.45124187 10.546875 5.33203125 C12.18304197 7.21010463 12.59909978 8.56822368 13 11 C12.443125 10.401875 11.88625 9.80375 11.3125 9.1875 C9.10192951 6.93903872 9.10192951 6.93903872 6.5 5.5 C3.90494545 3.94296727 2.05447654 2.20665999 0 0 Z " fill="#67B55F" transform="translate(862,264)"/>
<path d="M0 0 C0.97961897 2.93885692 1.03775226 4.05758525 0.66015625 7.01171875 C0.56669922 7.76904297 0.47324219 8.52636719 0.37695312 9.30664062 C0.27318359 10.09232422 0.16941406 10.87800781 0.0625 11.6875 C-0.03740234 12.48478516 -0.13730469 13.28207031 -0.24023438 14.10351562 C-0.48748847 16.06977435 -0.74295637 18.03499706 -1 20 C-1.33 20 -1.66 20 -2 20 C-2.25081682 17.79402076 -2.47473851 15.58497421 -2.6875 13.375 C-2.81511719 12.14523438 -2.94273437 10.91546875 -3.07421875 9.6484375 C-2.99225442 5.61924374 -2.04889787 3.42360827 0 0 Z " fill="#BCE4C7" transform="translate(880,238)"/>
<path d="M0 0 C2.64 0 5.28 0 8 0 C4.25 2 4.25 2 2 2 C2.16371094 2.55171875 2.32742188 3.1034375 2.49609375 3.671875 C3.05760414 6.26614007 3.09739008 8.59835411 3.0625 11.25 C3.05347656 12.14203125 3.04445313 13.0340625 3.03515625 13.953125 C3.02355469 14.62859375 3.01195312 15.3040625 3 16 C2.67 16 2.34 16 2 16 C1.34 10.72 0.68 5.44 0 0 Z " fill="#E1BF92" transform="translate(864,299)"/>
<path d="M0 0 C4.28904235 1.5885342 6.32345526 4.43127368 9 8 C9 8.66 9 9.32 9 10 C8.34 10 7.68 10 7 10 C7 9.34 7 8.68 7 8 C6.401875 7.79375 5.80375 7.5875 5.1875 7.375 C2.18981233 5.49073918 1.38638224 3.18867916 0 0 Z " fill="#3E924F" transform="translate(869,270)"/>
<path d="M0 0 C2.88575819 0.39803561 3.82189513 0.79009069 5.75 3.0625 C6.36875 4.0215625 6.36875 4.0215625 7 5 C0.25 4.25 0.25 4.25 -2 2 C-1.34 2 -0.68 2 0 2 C0 1.34 0 0.68 0 0 Z " fill="#22893C" transform="translate(871,279)"/>
<path d="M0 0 C0.66 0.66 1.32 1.32 2 2 C0.02 3.98 -1.96 5.96 -4 8 C-4.99 7.67 -5.98 7.34 -7 7 C-4.69 4.69 -2.38 2.38 0 0 Z " fill="#152637" transform="translate(851,671)"/>
<path d="M0 0 C0.66 0.33 1.32 0.66 2 1 C-0.97 3.97 -3.94 6.94 -7 10 C-7 6.04435836 -5.59478606 4.89133304 -3 2 C-2.01 1.34 -1.02 0.68 0 0 Z " fill="#89C987" transform="translate(906,254)"/>
<path d="M0 0 C2.7558573 4.13378595 3.10756445 6.05203546 3 11 C1.10786631 8.61426621 -0.02391783 6.92824652 -1 4 C-0.5625 1.8125 -0.5625 1.8125 0 0 Z " fill="#7ECD78" transform="translate(880,264)"/>
<path d="M0 0 C0.66 0.33 1.32 0.66 2 1 C-0.64 3.64 -3.28 6.28 -6 9 C-6.66 8.34 -7.32 7.68 -8 7 C-5.47376214 4.47376214 -2.75469422 2.27561697 0 0 Z " fill="#73BD75" transform="translate(904,258)"/>
<path d="M0 0 C0.66 0.33 1.32 0.66 2 1 C0.02 2.98 -1.96 4.96 -4 7 C-4.99 6.67 -5.98 6.34 -7 6 C-4.69 4.02 -2.38 2.04 0 0 Z " fill="#172639" transform="translate(626,532)"/>
<path d="M0 0 C2.4294516 3.6441774 2.16179575 5.71241272 2 10 C0.4375 8.9375 0.4375 8.9375 -1 7 C-0.6875 3.3125 -0.6875 3.3125 0 0 Z " fill="#D7ECDB" transform="translate(878,258)"/>
<path d="M0 0 C0.33 0 0.66 0 1 0 C1.36923077 6.4 1.36923077 6.4 -0.5 9.4375 C-0.995 9.953125 -1.49 10.46875 -2 11 C-2.25 3.375 -2.25 3.375 0 0 Z " fill="#57B261" transform="translate(882,234)"/>
<path d="M0 0 C0 3 0 3 -2.5 5.6875 C-3.325 6.450625 -4.15 7.21375 -5 8 C-5.99 7.67 -6.98 7.34 -8 7 C-5.36 4.69 -2.72 2.38 0 0 Z " fill="#172638" transform="translate(597,557)"/>
<path d="M0 0 C0.99 0.33 1.98 0.66 3 1 C1.90554162 1.86657116 0.79902219 2.71792724 -0.3125 3.5625 C-0.92738281 4.03816406 -1.54226563 4.51382812 -2.17578125 5.00390625 C-2.77777344 5.33261719 -3.37976563 5.66132813 -4 6 C-4.99 5.67 -5.98 5.34 -7 5 C-5.90554162 4.13342884 -4.79902219 3.28207276 -3.6875 2.4375 C-3.07261719 1.96183594 -2.45773437 1.48617188 -1.82421875 0.99609375 C-1.22222656 0.66738281 -0.62023437 0.33867187 0 0 Z " fill="#203F5C" transform="translate(718,459)"/>
<path d="M0 0 C2.70272533 2.87164566 3.94791837 4.30991841 4.25 8.3125 C4.1675 9.199375 4.085 10.08625 4 11 C1.6870518 8.6870518 1.50419025 7.52095125 0.875 4.375 C0.70742188 3.55773437 0.53984375 2.74046875 0.3671875 1.8984375 C0.24601563 1.27195312 0.12484375 0.64546875 0 0 Z " fill="#91D684" transform="translate(856,262)"/>
<path d="M0 0 C0 4.38968456 -2.12805101 5.76905739 -5 9 C-5.66 8.34 -6.32 7.68 -7 7 C-4.69 4.69 -2.38 2.38 0 0 Z " fill="#186533" transform="translate(901,269)"/>
</svg>
